<?xml version="1.0" encoding="utf-8"?>
<!-- Generator: Adobe Illustrator 16.0.0, SVG Export Plug-In . SVG Version: 6.00 Build 0)  -->
<!DOCTYPE svg PUBLIC "-//W3C//DTD SVG 1.1//EN" "http://www.w3.org/Graphics/SVG/1.1/DTD/svg11.dtd">
<svg version="1.1" id="Layer_1" xmlns="http://www.w3.org/2000/svg" xmlns:xlink="http://www.w3.org/1999/xlink" x="0px" y="0px"
	 width="108px" height="97.5px" viewBox="0 0 108 97.5" enable-background="new 0 0 108 97.5" xml:space="preserve">
<g>
	<path d="M33.178,11.704c-0.276,0.464-0.666,0.822-1.17,1.074c-0.504,0.252-1.084,0.378-1.74,0.378c-0.656,0-1.236-0.126-1.74-0.378
		c-0.504-0.252-0.894-0.61-1.17-1.074s-0.414-1.004-0.414-1.62c0-0.608,0.14-1.144,0.42-1.608c0.28-0.464,0.67-0.824,1.17-1.08
		c0.5-0.256,1.078-0.384,1.734-0.384c0.656,0,1.234,0.128,1.734,0.384c0.5,0.256,0.89,0.616,1.17,1.08c0.28,0.464,0.42,1,0.42,1.608
		C33.592,10.7,33.454,11.24,33.178,11.704z M29.848,15.424h7.008v1.824h-9.072V13.66h2.064V15.424z M29.32,11.098
		c0.24,0.244,0.556,0.366,0.948,0.366c0.392,0,0.708-0.122,0.948-0.366c0.24-0.244,0.36-0.582,0.36-1.014s-0.12-0.77-0.36-1.014
		c-0.24-0.244-0.556-0.366-0.948-0.366c-0.392,0-0.708,0.122-0.948,0.366c-0.24,0.244-0.36,0.582-0.36,1.014
		S29.08,10.854,29.32,11.098z M37.912,9.04v1.968h-1.2v3.576h-2.028V7h2.028v2.04H37.912z"/>
	<path d="M44.554,12.868c-0.444,0.048-0.91,0.072-1.398,0.072H38.92V7.06h2.04v4.368h2.28c1.064,0,1.852-0.08,2.364-0.24v1.488
		C45.348,12.756,44.998,12.82,44.554,12.868z M48.688,15.34c0,1.352-1.56,2.028-4.68,2.028c-3.12,0-4.68-0.676-4.68-2.028
		c0-1.352,1.56-2.028,4.68-2.028C47.128,13.312,48.688,13.988,48.688,15.34z M45.838,15.748c0.46-0.088,0.69-0.224,0.69-0.408
		c0-0.184-0.234-0.32-0.702-0.408c-0.468-0.088-1.074-0.132-1.818-0.132c-0.744,0-1.35,0.044-1.818,0.132s-0.702,0.224-0.702,0.408
		c0,0.184,0.232,0.32,0.696,0.408c0.464,0.088,1.072,0.132,1.824,0.132C44.768,15.88,45.378,15.836,45.838,15.748z M46.6,10.912
		h-3.096V9.436H46.6V8.968h-3.096V7.492H46.6V7h1.992v6.192H46.6V10.912z"/>
	<path d="M52.642,12.388c0.18-0.376,0.49-0.728,0.93-1.056c0.392-0.304,0.672-0.558,0.84-0.762c0.168-0.204,0.252-0.442,0.252-0.714
		c0-0.304-0.104-0.542-0.312-0.714c-0.208-0.172-0.5-0.258-0.876-0.258c-0.384,0-0.686,0.114-0.906,0.342s-0.33,0.506-0.33,0.834
		h-2.088c0-0.568,0.142-1.082,0.426-1.542c0.284-0.46,0.676-0.822,1.176-1.086c0.5-0.264,1.07-0.396,1.71-0.396
		c0.68,0,1.264,0.12,1.752,0.36s0.86,0.574,1.116,1.002c0.256,0.428,0.384,0.914,0.384,1.458c0,0.84-0.404,1.572-1.212,2.196
		c-0.44,0.344-0.742,0.645-0.906,0.9s-0.246,0.552-0.246,0.888h-1.98C52.372,13.248,52.462,12.764,52.642,12.388z M52.516,16.894
		c-0.24-0.236-0.36-0.538-0.36-0.906c0-0.368,0.12-0.672,0.36-0.912c0.24-0.24,0.544-0.36,0.912-0.36c0.368,0,0.672,0.12,0.912,0.36
		c0.24,0.24,0.36,0.544,0.36,0.912c0,0.368-0.12,0.67-0.36,0.906c-0.24,0.236-0.544,0.354-0.912,0.354
		C53.06,17.248,52.756,17.13,52.516,16.894z"/>
	<path d="M60.322,12.388c0.18-0.376,0.49-0.728,0.93-1.056c0.392-0.304,0.672-0.558,0.84-0.762c0.168-0.204,0.252-0.442,0.252-0.714
		c0-0.304-0.104-0.542-0.312-0.714c-0.208-0.172-0.5-0.258-0.876-0.258c-0.384,0-0.686,0.114-0.906,0.342s-0.33,0.506-0.33,0.834
		h-2.088c0-0.568,0.142-1.082,0.426-1.542c0.284-0.46,0.676-0.822,1.176-1.086c0.5-0.264,1.07-0.396,1.71-0.396
		c0.68,0,1.264,0.12,1.752,0.36s0.86,0.574,1.116,1.002c0.256,0.428,0.384,0.914,0.384,1.458c0,0.84-0.404,1.572-1.212,2.196
		c-0.44,0.344-0.742,0.645-0.906,0.9s-0.246,0.552-0.246,0.888h-1.98C60.052,13.248,60.142,12.764,60.322,12.388z M60.196,16.894
		c-0.24-0.236-0.36-0.538-0.36-0.906c0-0.368,0.12-0.672,0.36-0.912c0.24-0.24,0.544-0.36,0.912-0.36c0.368,0,0.672,0.12,0.912,0.36
		c0.24,0.24,0.36,0.544,0.36,0.912c0,0.368-0.12,0.67-0.36,0.906c-0.24,0.236-0.544,0.354-0.912,0.354
		C60.74,17.248,60.436,17.13,60.196,16.894z"/>
</g>
<polygon fill="#ED8585" points="108,97.5 15,97.5 15,20.5 108,20.5 79,59 "/>
<path fill="#ED8585" d="M0,0"/>
</svg>
